<?xml version="1.0" standalone="no"?>
<!DOCTYPE svg PUBLIC "-//W3C//DTD SVG 20010904//EN"
 "http://www.w3.org/TR/2001/REC-SVG-20010904/DTD/svg10.dtd">
<svg version="1.0" xmlns="http://www.w3.org/2000/svg"
 width="500.000000pt" height="500.000000pt" viewBox="0 0 500.000000 500.000000"
 preserveAspectRatio="xMidYMid meet">

<g transform="translate(0.000000,500.000000) scale(0.100000,-0.100000)"
fill="#000000" stroke="none">
<path d="M2527 3233 c-139 -357 -184 -479 -180 -490 7 -19 31 -16 42 5 30 57
222 575 217 587 -14 38 -36 10 -79 -102z"/>
<path d="M2200 3147 c-63 -51 -115 -99 -115 -107 0 -19 224 -199 248 -200 10
0 17 7 17 19 0 13 -35 47 -100 97 -55 43 -100 81 -100 84 0 3 45 41 100 84 65
50 100 84 100 97 0 36 -34 19 -150 -74z"/>
<path d="M2610 3221 c0 -13 35 -47 100 -97 55 -43 100 -81 100 -84 0 -3 -45
-41 -100 -84 -65 -50 -100 -84 -100 -97 0 -34 30 -20 139 65 121 95 134 108
125 127 -8 21 -230 189 -248 189 -9 0 -16 -8 -16 -19z"/>
<path d="M1727 2563 c-4 -3 -7 -105 -7 -225 l0 -218 150 0 150 0 0 45 0 44
-97 3 -98 3 -3 178 -2 177 -44 0 c-23 0 -46 -3 -49 -7z"/>
<path d="M2463 2431 c-52 -24 -83 -79 -83 -148 0 -122 98 -190 229 -162 28 6
51 12 51 14 0 3 -7 20 -17 39 -14 31 -19 34 -47 29 -33 -6 -32 -6 -58 -4 -55
4 -77 94 -36 146 20 25 26 27 73 22 51 -5 52 -5 69 29 16 34 16 35 -10 44 -41
16 -125 11 -171 -9z"/>
<path d="M2754 2443 c-16 -3 -25 -16 -32 -46 -6 -23 -10 -43 -8 -44 1 -1 18 2
37 7 49 14 91 12 117 -6 41 -29 28 -44 -39 -44 -35 0 -75 -7 -95 -16 -65 -31
-66 -126 0 -161 33 -18 173 -24 229 -10 l27 7 0 111 c0 133 -13 173 -64 194
-33 14 -122 18 -172 8z m134 -221 l3 -33 -48 3 c-38 2 -49 7 -51 22 -5 26 26
48 63 44 26 -3 30 -7 33 -36z"/>
<path d="M3084 2436 c-36 -16 -59 -64 -50 -102 10 -39 49 -69 116 -87 48 -14
61 -21 58 -35 -3 -14 -14 -17 -58 -17 -30 0 -67 3 -81 7 -23 7 -27 4 -36 -27
l-11 -35 41 -11 c60 -16 159 -13 195 5 19 10 35 29 42 50 23 69 -11 114 -107
142 -89 26 -64 66 29 47 48 -9 50 -9 59 14 13 36 12 40 -22 52 -43 15 -137 13
-175 -3z"/>
<path d="M2041 2316 c4 -108 7 -128 25 -153 29 -38 92 -55 174 -47 101 10 105
13 103 70 -1 27 -2 95 -2 152 l-1 102 -45 0 -44 0 -3 -117 -3 -118 -40 -3
c-57 -5 -65 11 -65 135 l0 103 -51 0 -51 0 3 -124z"/>
<path d="M1825 1882 c-3 -3 -5 -50 -5 -105 l0 -99 60 4 c81 6 110 32 110 100
0 39 -5 54 -25 73 -13 14 -34 25 -47 26 -13 1 -37 2 -55 4 -18 1 -35 0 -38 -3z
m115 -52 c40 -40 15 -102 -47 -115 l-33 -7 0 71 0 71 30 0 c17 0 39 -9 50 -20z"/>
<path d="M2507 1883 c-4 -3 -7 -51 -7 -105 0 -80 3 -98 15 -98 12 0 15 18 15
105 0 96 -5 117 -23 98z"/>
<path d="M2039 1811 c-17 -13 -23 -29 -23 -56 0 -27 6 -43 23 -56 24 -20 76
-25 100 -10 22 14 3 31 -29 24 -29 -5 -60 9 -60 28 0 5 25 9 55 9 62 0 68 10
34 54 -25 31 -66 34 -100 7z m79 -28 c2 -9 -8 -13 -33 -13 -33 0 -36 2 -25 15
15 18 51 16 58 -2z"/>
<path d="M2352 1807 c-60 -63 9 -153 92 -121 27 10 20 35 -8 28 -32 -8 -66 3
-66 22 0 10 13 14 50 14 43 0 50 3 50 20 0 54 -79 79 -118 37z m78 -22 c11
-13 7 -15 -24 -15 -34 0 -44 8 -29 23 11 12 40 8 53 -8z"/>
<path d="M2575 1805 c-14 -13 -25 -36 -25 -50 0 -36 42 -75 80 -75 38 0 80 39
80 75 0 36 -42 75 -80 75 -19 0 -40 -9 -55 -25z m85 -19 c28 -35 -11 -93 -47
-70 -36 22 -23 84 17 84 10 0 23 -7 30 -14z"/>
<path d="M2743 1823 c-9 -3 -13 -33 -13 -99 0 -77 3 -94 15 -94 9 0 15 9 15
25 0 22 4 25 33 25 72 0 106 86 51 129 -25 20 -72 26 -101 14z m81 -39 c20
-20 20 -38 0 -59 -25 -25 -58 -15 -62 18 -2 16 -1 35 2 43 7 19 41 18 60 -2z"/>
<path d="M2912 1807 c-60 -63 9 -153 92 -121 27 10 20 35 -8 28 -32 -8 -66 3
-66 22 0 10 13 14 50 14 43 0 50 3 50 20 0 54 -79 79 -118 37z m78 -22 c11
-13 7 -15 -24 -15 -34 0 -44 8 -29 23 11 12 40 8 53 -8z"/>
<path d="M2194 1753 c19 -58 26 -68 48 -71 23 -3 28 3 47 59 25 74 25 79 7 79
-9 0 -22 -24 -34 -57 l-19 -58 -18 58 c-13 41 -24 57 -36 57 -16 0 -16 -5 5
-67z"/>
<path d="M3060 1750 c0 -56 3 -70 15 -70 12 0 15 13 15 55 0 52 1 55 25 55 16
0 25 6 25 15 0 11 -11 15 -40 15 l-40 0 0 -70z"/>
</g>
</svg>
